# xmcd
#
# Track frame offsets:
# 150
# 10326
# 21299
# 33727
# 46628
# 56868
# 69448
# 80605
# 91538
# 103085
# 116131
# 128425
# 141524
# 151835
# 163439
# 171559
# 179613
# 190184
# 202382
# 213510
#
# Disc length: 3004 seconds
#
#
# Revision: 0
# Processed by: cddbd v1.5.1PL2 Copyright (c) Steve Scherf et al.
# Submitted via: FreeRIP 2.945 
#
DISCID=290bba14
DTITLE=Johnny Cash - The Complete Sun Single vol 1
DYEAR=1900
DGENRE=Country
TTITLE0=01 Johnny Cash_The Complete Sun Singles,vol. 1_01_HEY PORTER
TTITLE1=02 Johnny Cash_The Complete Sun Singles,vol. 1_02_CRY!CRY!CRY!
TTITLE2=03 Johnny Cash_The Complete Sun Singles, vol. 1_03_So Doggone Lonesome
TTITLE3=04 Johnny Cash_The Complete Sun Singles, vol. 1_04_ FOLSOM PRISON BLUES
TTITLE4=05 Johnny Cash_The Complete Sun Singles, vol. 1_05_ GET RHYTHM
TTITLE5=06 Johnny Cash_The Complete Sun Singles, vol. 1_06_ I WALK THE LINE
TTITLE6=07 Johnny Cash_The Complete Sun Singles, vol. 1_07_Train of Love
TTITLE7=08 Johnny Cash_The Complete Sun Singles, vol. 1_08_There You Go
TTITLE8=09 Johnny Cash_The Complete Sun Singles, vol. 1_09_Don't Make Me Go
TTITLE9=10 Johnny Cash_The Complete Sun Singles, vol. 1_10_Next in Line
TTITLE10=11 Johnny Cash_The Complete Sun Singles, vol. 1_11_Home of the Blues
TTITLE11=12 Johnny Cash_The Complete Sun Singles, vol. 1_12_Give My Love to Rose
TTITLE12=13 Johnny Cash_The Complete Sun Singles, vol. 1_13_Ballad of a Teenage Queen
TTITLE13=14 Johnny Cash_The Complete Sun Singles, vol. 1_14_ BIG RIVER
TTITLE14=15 Johnny Cash_The Complete Sun Singles, vol. 1_15_ I Guess Things Happen That Way
TTITLE15=16 Johnny Cash_The Complete Sun Singles, vol. 1_16_Come In Stranger
TTITLE16=17 Johnny Cash_The Complete Sun Singles, vol. 1_17_The Ways of a Woman in Love
TTITLE17=18 Johnny Cash_The Complete Sun Singles, vol. 1_18_YOU'RE THE NEAREST THING TO HEAVEN
TTITLE18=19 Johnny Cash_The Complete Sun Singles, vol. 1_19_I Just Thought You'd Like to Know
TTITLE19=20 Johnny Cash_The Complete Sun Singles, vol. 1_20_It's Just About Time-The Complete Sun Recordings 1955-1958 Disc 1
EXTD=The Complete Sun Recordings 1955-1958 Disc 1
EXTT0=01_HEY PORTER
EXTT1=02_CRY!CRY!CRY!
EXTT2=03_So Doggone Lonesome
EXTT3=04_ FOLSOM PRISON BLUES
EXTT4=05_ GET RHYTHM
EXTT5=06_I WALK THE LINE
EXTT6=07_Train of Love
EXTT7=08_There You Go
EXTT8=09_Don't Make Me Go
EXTT9=10_Next in Line
EXTT10=11_Home of the Blues
EXTT11=12_Give My Love to Rose
EXTT12=13_Ballad of a Teenage Queen
EXTT13=14_ BIG RIVER
EXTT14=15_ I Guess Things Happen That Way
EXTT15=16_Come In Stranger
EXTT16=17_The Ways of a Woman in Love
EXTT17=YOU'RE THE NEAREST THING TO HEAVEN
EXTT18=19_I Just Thought You'd Like to Know
EXTT19=20_It's Just About Time
PLAYORDER=
